<?xml version="1.0" encoding="UTF-8"?>
<svg width="211px" height="273px" viewBox="0 0 211 273" version="1.1" xmlns="http://www.w3.org/2000/svg" xmlns:xlink="http://www.w3.org/1999/xlink">
    <!-- Generator: Sketch 56.3 (81716) - https://sketch.com -->
    <title>footprint copy 3</title>
    <desc>Created with Sketch.</desc>
    <defs>
        <linearGradient x1="50%" y1="0%" x2="50%" y2="99.0709459%" id="linearGradient-1">
            <stop stop-color="#EFFAF9" offset="0%"></stop>
            <stop stop-color="#D5E3E0" offset="100%"></stop>
        </linearGradient>
    </defs>
    <g id="Page-1" stroke="none" stroke-width="1" fill="none" fill-rule="evenodd">
        <g id="Desktop-HD" transform="translate(-1098.000000, -1803.000000)" fill="url(#linearGradient-1)">
            <path d="M1119.91793,2040.99019 C1125.02301,2029.05988 1130.13776,2017.13223 1135.23318,2005.19927 C1140.26735,1993.4123 1147.20143,1981.90405 1149.85227,1969.76271 C1153.68914,1952.19707 1144.12033,1937.11463 1131.1272,1923.45497 C1123.03771,1914.94887 1114.62431,1906.54629 1107.7418,1897.39118 C1095.45931,1881.05055 1097.46396,1863.30971 1111.85906,1849.52397 C1125.85452,1836.12178 1145.93966,1831.48052 1167.19149,1840.40071 C1190.44797,1850.16235 1212.52164,1862.08204 1233.99908,1874.37866 C1247.35157,1882.02473 1248.81316,1894.4461 1244.49608,1906.75334 C1242.29322,1913.02707 1239.53119,1919.68701 1234.77902,1924.74502 C1210.83768,1950.23279 1208.43339,1979.01338 1211.97858,2009.6295 C1213.49657,2022.73837 1211.22604,2036.48696 1207.98379,2049.48965 C1206.23376,2056.5106 1200.1892,2063.79567 1193.65315,2068.8112 C1180.2926,2079.06258 1163.74943,2083.30833 1146.23134,2076.50637 C1128.87438,2069.76679 1122.25937,2057.10121 1119.91793,2040.99019 Z M1104.7363,1781.42319 C1108.67972,1778.42938 1114.29744,1776.69837 1118.42564,1775.89985 C1123.53605,1774.91145 1132.97887,1778.17967 1132.97887,1778.17967 C1132.97887,1778.17967 1140.55128,1784.58478 1141.91762,1789.87272 C1145.93236,1805.39323 1141.47676,1819.55728 1126.83763,1830.78604 C1114.93928,1839.91185 1099.2288,1824.78801 1099.2288,1824.78801 C1099.2288,1824.78801 1096.72951,1812.92069 1095.54632,1806.97207 C1094.79265,1806.61312 1095.50256,1788.43694 1104.7363,1781.42319 Z M1183.27582,1805.37495 C1183.16466,1806.10276 1183.12815,1808.12994 1182.50597,1810.03159 C1179.74183,1818.47952 1168.62717,1825.97796 1160.91377,1824.74402 C1153.42104,1823.54481 1148.89487,1814.90458 1150.65689,1805.14659 C1150.89415,1803.83253 1151.04679,1802.4971 1151.45329,1801.21509 C1153.76117,1793.96237 1156.13209,1786.53471 1168.2074,1786.88993 C1176.85988,1787.14367 1183.37371,1794.8758 1183.27582,1805.37495 Z M1202.02497,1842.74009 C1204.97144,1835.50781 1206.79345,1828.92185 1210.45519,1823.09581 C1211.91151,1820.7808 1217.84795,1818.63422 1221.00385,1819.18784 C1223.98737,1819.71143 1228.279,1824.04375 1228.01319,1826.40707 C1227.19321,1833.67199 1225.43402,1841.11971 1222.01876,1847.81927 C1220.60594,1850.59127 1212.85877,1853.88686 1210.13622,1852.93109 C1206.42132,1851.62669 1204.75396,1846.48876 1202.02497,1842.74009 Z M1208.95874,1813.93235 C1209.05938,1823.77865 1199.58179,1835.06565 1192.11089,1834.29312 C1183.02039,1833.35525 1183.3409,1826.34154 1183.008,1820.7143 C1182.3453,1809.50591 1188.54963,1801.31986 1197.24219,1801.33069 C1207.91513,1801.34561 1207.94455,1808.64123 1208.95874,1813.93235 Z M1260.14026,1857.96791 C1259.08793,1860.73143 1258.23978,1864.61469 1256.12463,1868.00428 C1254.34979,1870.85054 1251.09505,1873.12038 1248.49649,1875.64395 C1245.15798,1873.31206 1240.14935,1871.45592 1238.82651,1868.55037 C1236.07088,1862.49931 1233.42346,1855.72703 1234.31699,1849.57668 C1234.8894,1845.63273 1239.49665,1838.64395 1245.96251,1838.64395 C1252.42836,1838.64395 1254.91348,1845.05493 1258.31656,1848.8596 C1260.0914,1850.84122 1259.48234,1854.15359 1260.14026,1857.96791 Z" id="footprint-copy-3" transform="translate(1177.939452, 1927.604191) scale(-1, 1) rotate(-25.000000) translate(-1177.939452, -1927.604191) "></path>
        </g>
    </g>
</svg>