<?xml version="1.0" encoding="UTF-8"?>
<svg width="509px" height="415px" viewBox="0 0 509 415" version="1.1" xmlns="http://www.w3.org/2000/svg" xmlns:xlink="http://www.w3.org/1999/xlink">
    <!-- Generator: Sketch 56.3 (81716) - https://sketch.com -->
    <title>footprint copy</title>
    <desc>Created with Sketch.</desc>
    <defs>
        <linearGradient x1="50%" y1="0%" x2="50%" y2="100%" id="linearGradient-1">
            <stop stop-color="#EADAF1" offset="0%"></stop>
            <stop stop-color="#E0ECEA" offset="100%"></stop>
        </linearGradient>
    </defs>
    <g id="Page-1" stroke="none" stroke-width="1" fill="none" fill-rule="evenodd">
        <g id="Desktop-HD" transform="translate(-211.000000, -1205.000000)" fill="url(#linearGradient-1)">
            <path d="M397.986237,1625.45139 C407.050359,1604.0844 416.131649,1582.72217 425.178604,1561.35044 C434.116836,1540.24017 446.428363,1519.62908 451.134955,1497.88415 C457.947352,1466.42436 440.957845,1439.41197 417.888395,1414.94774 C403.525423,1399.71345 388.58736,1384.66457 376.367389,1368.26793 C354.559706,1339.00212 358.118976,1307.22857 383.677627,1282.53852 C408.526713,1258.53543 444.188083,1250.22301 481.920926,1266.19892 C523.21304,1283.68187 562.405069,1305.02983 600.538473,1327.05287 C624.24596,1340.74685 626.841023,1362.99333 619.176002,1385.03539 C615.264811,1396.27153 610.3608,1408.19939 601.923269,1417.2582 C559.415167,1462.90638 555.146332,1514.45194 561.440861,1569.28491 C564.136064,1592.76268 560.104704,1617.38618 554.348071,1640.67379 C551.240863,1653.24819 540.50869,1666.29563 528.903866,1675.27836 C505.182074,1693.63842 475.80951,1701.24249 444.705951,1689.06029 C413.888507,1676.98981 402.143488,1654.30597 397.986237,1625.45139 Z M370.473674,1158.33627 C377.374667,1152.91643 387.205675,1149.78272 394.430019,1148.33711 C403.373229,1146.54777 419.898172,1152.46439 419.898172,1152.46439 C419.898172,1152.46439 433.149894,1164.05983 435.54099,1173.63284 C442.566785,1201.7303 434.769486,1227.37213 409.151003,1247.70006 C388.328894,1264.22091 360.835542,1236.84154 360.835542,1236.84154 C360.835542,1236.84154 356.461793,1215.3576 354.391212,1204.58855 C353.07228,1203.93874 354.314629,1171.03358 370.473674,1158.33627 Z M508.402835,1201.62537 C508.204089,1202.90861 508.138829,1206.48285 507.026443,1209.83576 C502.084483,1224.73079 482.212822,1237.95172 468.422203,1235.7761 C455.026111,1233.66169 446.933874,1218.4276 450.084151,1201.22273 C450.508341,1198.90583 450.781246,1196.55126 451.508005,1194.29087 C455.634215,1181.50318 459.873147,1168.40705 481.462332,1169.03336 C496.931912,1169.48073 508.577851,1183.11371 508.402835,1201.62537 Z M545.927624,1268.42213 C551.027284,1255.44657 554.180765,1243.63058 560.518396,1233.17798 C563.03895,1229.02458 573.313552,1225.17338 578.775681,1226.16663 C583.939471,1227.10601 591.367297,1234.87869 590.90724,1239.11877 C589.488035,1252.1529 586.443295,1265.51499 580.532262,1277.53478 C578.08699,1282.50808 564.678425,1288.42076 559.966328,1286.70599 C553.536685,1284.36575 550.650874,1275.14769 545.927624,1268.42213 Z M553.453199,1217.42498 C553.631261,1235.02898 536.863213,1255.20876 523.645465,1253.82758 C507.562274,1252.15078 508.129336,1239.61111 507.540358,1229.5503 C506.367882,1209.51106 517.344777,1194.87539 532.723935,1194.89475 C551.606823,1194.92143 551.658872,1207.96511 553.453199,1217.42498 Z M644.418768,1298.0336 C642.637889,1302.88843 641.202554,1309.71039 637.623077,1315.66507 C634.619505,1320.66526 629.111481,1324.65281 624.713921,1329.08612 C619.064136,1324.98955 610.58798,1321.72877 608.34933,1316.62441 C603.685968,1305.99417 599.205715,1294.09692 600.717837,1283.29226 C601.686541,1276.36371 609.483422,1264.08612 620.425637,1264.08612 C631.367851,1264.08612 635.573442,1275.34865 641.332502,1282.03252 C644.336073,1285.51376 643.305349,1291.33277 644.418768,1298.0336 Z" id="footprint-copy" transform="translate(499.209384, 1421.490763) scale(-1, 1) rotate(-233.000000) translate(-499.209384, -1421.490763) "></path>
        </g>
    </g>
</svg>