<?xml version="1.0" encoding="UTF-8"?>
<svg width="240px" height="274px" viewBox="0 0 240 274" version="1.1" xmlns="http://www.w3.org/2000/svg" xmlns:xlink="http://www.w3.org/1999/xlink">
    <!-- Generator: Sketch 56.3 (81716) - https://sketch.com -->
    <title>footprint copy 3</title>
    <desc>Created with Sketch.</desc>
    <defs>
        <linearGradient x1="50%" y1="0%" x2="50%" y2="99.0709459%" id="linearGradient-1">
            <stop stop-color="#EFFAF9" offset="0%"></stop>
            <stop stop-color="#D5E3E0" offset="100%"></stop>
        </linearGradient>
    </defs>
    <g id="Page-1" stroke="none" stroke-width="1" fill="none" fill-rule="evenodd">
        <g id="Desktop-HD" transform="translate(-1020.000000, -2278.000000)" fill="url(#linearGradient-1)">
            <path d="M1090.11405,2548.87982 C1095.1844,2536.94951 1100.26435,2525.02186 1105.3251,2513.0889 C1110.32503,2501.30193 1117.21194,2489.79368 1119.84475,2477.65235 C1123.65551,2460.0867 1114.1518,2445.00427 1101.24705,2431.3446 C1093.21259,2422.8385 1084.85644,2414.43592 1078.02074,2405.28082 C1065.82181,2388.94019 1067.81282,2371.19935 1082.11,2357.4136 C1096.01025,2344.01141 1115.95876,2339.37015 1137.06602,2348.29034 C1160.16429,2358.05199 1182.0878,2369.97168 1203.41913,2382.26829 C1216.68079,2389.91436 1218.13243,2402.33573 1213.84472,2414.64297 C1211.65685,2420.9167 1208.91361,2427.57665 1204.19376,2432.63465 C1180.41529,2458.12243 1178.02736,2486.90301 1181.54843,2517.51913 C1183.05609,2530.628 1180.801,2544.37659 1177.58082,2557.37928 C1175.84269,2564.40023 1169.83925,2571.6853 1163.34766,2576.70083 C1150.078,2586.95222 1133.64737,2591.19797 1116.24845,2584.39601 C1099.00957,2577.65643 1092.43956,2564.99084 1090.11405,2548.87982 Z M1074.79325,2289.11931 C1078.65452,2286.1255 1084.1552,2284.39449 1088.19739,2283.59597 C1093.20133,2282.60757 1102.44743,2285.8758 1102.44743,2285.8758 C1102.44743,2285.8758 1109.86208,2292.2809 1111.19996,2297.56885 C1115.13106,2313.08935 1110.76829,2327.2534 1096.43413,2338.48217 C1084.78367,2347.60797 1069.40048,2332.48413 1069.40048,2332.48413 C1069.40048,2332.48413 1066.95327,2320.61681 1065.79473,2314.66819 C1065.05675,2314.30925 1065.75188,2296.13306 1074.79325,2289.11931 Z M1152.25385,2312.93722 C1152.14269,2313.66503 1152.10618,2315.69221 1151.484,2317.59386 C1148.71986,2326.04179 1137.6052,2333.54023 1129.8918,2332.30629 C1122.39907,2331.10708 1117.87291,2322.46685 1119.63492,2312.70886 C1119.87218,2311.3948 1120.02483,2310.05937 1120.43132,2308.77736 C1122.7392,2301.52464 1125.11013,2294.09698 1137.18543,2294.4522 C1145.83791,2294.70594 1152.35174,2302.43807 1152.25385,2312.93722 Z M1171.94744,2350.24715 C1174.78058,2343.01487 1176.53252,2336.42891 1180.05342,2330.60287 C1181.45373,2328.28786 1187.16184,2326.14128 1190.19636,2326.6949 C1193.06513,2327.21849 1197.1917,2331.5508 1196.93611,2333.91412 C1196.14767,2341.17905 1194.45614,2348.62677 1191.17224,2355.32633 C1189.81375,2358.09833 1182.36455,2361.39392 1179.74672,2360.43815 C1176.17469,2359.13375 1174.57147,2353.99582 1171.94744,2350.24715 Z M1177.72842,2321.3534 C1177.8252,2331.1997 1168.71213,2342.4867 1161.52857,2341.71418 C1152.7877,2340.7763 1153.09589,2333.76259 1152.77579,2328.13536 C1152.13858,2316.92697 1158.10428,2308.74092 1166.46252,2308.75175 C1176.72496,2308.76667 1176.75325,2316.06228 1177.72842,2321.3534 Z M1228.72814,2366.27653 C1227.71628,2369.04005 1226.90075,2372.92332 1224.86695,2376.31291 C1223.16038,2379.15917 1220.03082,2381.42901 1217.5322,2383.95258 C1214.3221,2381.62069 1209.5061,2379.76455 1208.23414,2376.85899 C1205.5845,2370.80793 1203.03891,2364.03565 1203.89807,2357.88531 C1204.44847,2353.94136 1208.87851,2346.95258 1215.09568,2346.95258 C1221.31285,2346.95258 1223.70239,2353.36356 1226.97458,2357.16823 C1228.68115,2359.14985 1228.09552,2362.46221 1228.72814,2366.27653 Z" id="footprint-copy-3" transform="translate(1147.439452, 2435.604191) rotate(42.000000) translate(-1147.439452, -2435.604191) "></path>
        </g>
    </g>
</svg>