<?xml version="1.0" encoding="UTF-8"?>
<svg width="403px" height="399px" viewBox="0 0 403 399" version="1.1" xmlns="http://www.w3.org/2000/svg" xmlns:xlink="http://www.w3.org/1999/xlink">
    <!-- Generator: Sketch 56.3 (81716) - https://sketch.com -->
    <title>footprint</title>
    <desc>Created with Sketch.</desc>
    <defs>
        <linearGradient x1="50%" y1="0%" x2="50%" y2="100%" id="linearGradient-1">
            <stop stop-color="#D0E5E1" offset="0%"></stop>
            <stop stop-color="#E0ECEA" offset="100%"></stop>
        </linearGradient>
    </defs>
    <g id="Page-1" stroke="none" stroke-width="1" fill="none" fill-rule="evenodd">
        <g id="Desktop-HD" transform="translate(-500.000000, -551.000000)" fill="url(#linearGradient-1)">
            <path d="M592.17875,895.687721 C600.270476,876.667683 608.377527,857.651877 616.453928,838.627608 C624.433269,819.83609 635.42402,801.488916 639.625689,782.132446 C645.707255,754.128197 630.540377,730.08284 609.94581,708.305754 C597.123693,694.744799 583.788181,681.348887 572.879165,666.753246 C553.411004,640.701994 556.588437,612.418442 579.405163,590.440343 C601.588446,569.073746 633.424076,561.674361 667.108951,575.895484 C703.971259,591.458102 738.95878,610.461213 773.001244,630.065245 C794.165399,642.255081 796.482064,662.058011 789.639345,681.678971 C786.147745,691.680942 781.769835,702.298647 774.23748,710.362432 C736.289634,750.99663 732.478758,796.880434 738.098012,845.690561 C740.504075,866.589539 736.905198,888.508392 731.766134,909.238096 C728.992266,920.431332 719.411437,932.045637 709.051576,940.041712 C687.87465,956.385107 661.653166,963.153947 633.886387,952.309838 C606.375029,941.565178 595.890012,921.372918 592.17875,895.687721 Z M567.281402,479.536949 C573.443003,474.684902 582.220689,471.879483 588.670996,470.585322 C596.656005,468.98343 611.410418,474.280213 611.410418,474.280213 C611.410418,474.280213 623.242313,484.660896 625.37722,493.231018 C631.650252,518.38494 624.688377,541.340476 601.814732,559.538813 C583.223563,574.328915 558.675928,549.817858 558.675928,549.817858 C558.675928,549.817858 554.770795,530.584613 552.922061,520.943752 C551.744443,520.362012 552.853683,490.904059 567.281402,479.536949 Z M689.66057,518.447394 C689.485404,519.596566 689.427887,522.79738 688.447479,525.799988 C684.091853,539.138822 666.577847,550.97846 654.423403,549.030138 C642.616678,547.13664 635.484537,533.494172 638.261052,518.086828 C638.634914,516.011992 638.875441,513.903419 639.515974,511.879189 C643.152634,500.427528 646.888642,488.699645 665.916398,489.260525 C679.550604,489.661154 689.814821,501.869792 689.66057,518.447394 Z M724.19256,578.160928 C728.725591,566.461649 731.528685,555.807891 737.162135,546.383413 C739.402627,542.638545 748.535607,539.166146 753.390833,540.061704 C757.980868,540.908682 764.583381,547.916844 764.174441,551.739862 C762.912925,563.491946 760.20649,575.539732 754.952238,586.377248 C752.778663,590.861374 740.859939,596.192477 736.671408,594.646372 C730.95617,592.53632 728.391004,584.224953 724.19256,578.160928 Z M731.095457,533.208268 C731.254165,548.723657 716.30873,566.509225 704.527694,565.291913 C690.192676,563.814054 690.698101,552.762142 690.173142,543.894986 C689.12811,526.233284 698.911863,513.334049 712.619374,513.351117 C729.449774,513.374626 729.496166,524.870749 731.095457,533.208268 Z M811.669115,603.79288 C810.090609,608.124885 808.81838,614.212172 805.645661,619.525578 C802.983405,623.987282 798.101292,627.545406 794.203455,631.501278 C789.195691,627.845879 781.682735,624.936259 779.698477,620.381603 C775.565042,610.896157 771.593908,600.280153 772.934199,590.639066 C773.792822,584.456665 780.703695,573.501278 790.402476,573.501278 C800.101257,573.501278 803.828939,583.550922 808.933561,589.514993 C811.595817,592.621325 810.682221,597.813677 811.669115,603.79288 Z" id="footprint" transform="translate(682.120940, 713.932104) rotate(-128.000000) translate(-682.120940, -713.932104) "></path>
        </g>
    </g>
</svg>